<svg xmlns="http://www.w3.org/2000/svg" viewBox="0 0 64 64" role="img" aria-label="AdFrame">
  <rect x="6" y="8" width="52" height="48" rx="10" fill="#111315"/>
  <path fill="#fff" d="M16.1 46.2 27.3 21.1c1.1-2.5 2.9-3.7 5.6-3.7h8.5v29.2c0 1.3-.7 2-2 2h-7.2c-1.3 0-2-.7-2-2V34.4l-5.5 12.9c-.4.9-1.2 1.3-2.3 1.3h-4.8c-1.7 0-2.4-.8-1.5-2.4z"/>
  <path fill="#0b63ff" d="M43.5 18.2c1.9 10.3 6.3 14.7 16.6 16.6-10.3 1.9-14.7 6.3-16.6 16.6-1.9-10.3-6.3-14.7-16.6-16.6 10.3-1.9 14.7-6.3 16.6-16.6z"/>
</svg>
