<svg xmlns="http://www.w3.org/2000/svg" width="168" height="40" viewBox="0 0 168 40" role="img" aria-label="AdFrame">
  <g>
    <rect x="0" y="4" width="36" height="32" rx="8" fill="#111315"/>
    <path fill="#fff" d="M8.8 29.2 15.9 13.6c.7-1.5 1.8-2.2 3.5-2.2h5.4v18.1c0 .8-.4 1.2-1.2 1.2h-4.5c-.8 0-1.2-.4-1.2-1.2v-7.4l-3.5 7.9c-.3.5-.7.8-1.4.8h-3c-1 0-1.5-.6-1.2-1.6z"/>
    <path fill="#0b63ff" d="M26.1 11.8c1.1 6.3 3.8 9 10.1 10.1-6.3 1.1-9 3.8-10.1 10.1-1.1-6.3-3.8-9-10.1-10.1 6.3-1.1 9-3.8 10.1-10.1z"/>
  </g>
  <text x="48" y="26" fill="#111315" font-family="-apple-system, BlinkMacSystemFont, 'SF Pro Display', 'Inter', 'Segoe UI', sans-serif" font-size="18" font-weight="800" letter-spacing="0">AdFrame</text>
</svg>
